<svg xmlns="http://www.w3.org/2000/svg" viewBox="0 0 583.9 251.73"><defs><style>.cls-1{fill:#fff;}</style></defs><title>logo-white-light</title><g id="Layer_2" data-name="Layer 2"><g id="Logo"><path class="cls-1" d="M113.57,238.39h1.65l3.26,9.44,3.39-9.95,3.43,9.94,3.28-9.44h1.65l-5,13.35-3.35-9.92-3.34,9.91Z"/><path class="cls-1" d="M139.19,251.22V238.39H146v1.39h-5.24v3.68H146v1.42h-5.24v4.92H146v1.42Z"/><path class="cls-1" d="M156.83,251.22V238.39h2.46a26.1,26.1,0,0,1,3,.12,5.86,5.86,0,0,1,2.79,1.08,7.18,7.18,0,0,1,0,10.43,5.56,5.56,0,0,1-2.51,1,17.34,17.34,0,0,1-2.75.16Zm1.54-1.44h1q1.83,0,2.49-.08a4.33,4.33,0,0,0,2.31-.83,5.94,5.94,0,0,0,0-8.14,4.33,4.33,0,0,0-2.3-.85,23.46,23.46,0,0,0-2.5-.09h-1Z"/><path class="cls-1" d="M177.39,251.22V238.39h2.46a26.17,26.17,0,0,1,3,.12,5.86,5.86,0,0,1,2.79,1.08,7.18,7.18,0,0,1,0,10.43,5.54,5.54,0,0,1-2.51,1,17.42,17.42,0,0,1-2.75.16Zm1.54-1.44h1q1.83,0,2.49-.08a4.35,4.35,0,0,0,2.31-.83,5.94,5.94,0,0,0,0-8.14,4.36,4.36,0,0,0-2.3-.85,23.46,23.46,0,0,0-2.5-.09h-1Z"/><path class="cls-1" d="M198,251.22V238.39h1.53v12.84Z"/><path class="cls-1" d="M210.14,251.22V237.88l9.39,10.26v-9.75H221v13.34l-9.39-10.14v9.64Z"/><path class="cls-1" d="M238.66,244.6H244V245a6.57,6.57,0,0,1-1.7,4.77,6.24,6.24,0,0,1-4.71,1.76,6.66,6.66,0,0,1-3.24-.75,6,6,0,0,1-2.47-2.46,7,7,0,0,1-.82-3.41,6.79,6.79,0,0,1,2.06-5.17,6.34,6.34,0,0,1,4.56-1.67,6.1,6.1,0,0,1,5.46,2.69l-1.28,1a4.51,4.51,0,0,0-4.13-2.33,4.67,4.67,0,0,0-3.71,1.59,5.66,5.66,0,0,0-1.32,3.87,5.26,5.26,0,0,0,1.38,3.74,4.76,4.76,0,0,0,3.65,1.51A4.62,4.62,0,0,0,240.9,249a4.38,4.38,0,0,0,1.43-3.06h-3.67Z"/><path class="cls-1" d="M270.37,251.22l-1.23-1.49a5.35,5.35,0,0,1-3.9,1.73,3.87,3.87,0,0,1-2.73-1,3.46,3.46,0,0,1-1.08-2.66q0-2.26,2.95-4l-.53-.59a3.21,3.21,0,0,1-.62-1,3.07,3.07,0,0,1-.2-1.12,2.49,2.49,0,0,1,.87-2,3.44,3.44,0,0,1,4.15,0,2.53,2.53,0,0,1,.83,2q0,1.81-2.33,3.22l2.8,3.37a18.16,18.16,0,0,0,1.52-2l.94,1a11.71,11.71,0,0,1-1.65,2l2.06,2.46Zm-2.08-2.54-3.11-3.75-.38.25q-1.85,1.25-1.85,2.59a2.31,2.31,0,0,0,.67,1.69,2.26,2.26,0,0,0,1.69.68A4.6,4.6,0,0,0,268.29,248.69Zm-2.58-5.33.56-.32a2.71,2.71,0,0,0,.9-.83,1.84,1.84,0,0,0,.3-1,1.4,1.4,0,0,0-.42-1.07,1.54,1.54,0,0,0-1.09-.39,1.48,1.48,0,0,0-1.08.42,1.44,1.44,0,0,0-.43,1.08,1.84,1.84,0,0,0,.46,1.2Z"/><path class="cls-1" d="M300.53,241.45a5.62,5.62,0,0,0-4.27-2,4.91,4.91,0,0,0-3.67,1.56,5.25,5.25,0,0,0-1.47,3.79,5.18,5.18,0,0,0,.87,3,5,5,0,0,0,4.33,2.28,5.36,5.36,0,0,0,4.2-2v2a7.21,7.21,0,0,1-4.33,1.4,6.49,6.49,0,0,1-3.79-1.18,6.33,6.33,0,0,1-2.89-5.51,6.53,6.53,0,0,1,2-4.9,6.61,6.61,0,0,1,4.78-1.88,7.22,7.22,0,0,1,4.22,1.38Z"/><path class="cls-1" d="M323.79,244.83a6.38,6.38,0,0,1-2,4.76,7,7,0,0,1-9.71,0,6.67,6.67,0,0,1,0-9.55,7,7,0,0,1,9.71,0A6.42,6.42,0,0,1,323.79,244.83Zm-6.86,5.3a5.3,5.3,0,0,0,5.26-5.3,5.14,5.14,0,0,0-1.54-3.77,5.08,5.08,0,0,0-3.72-1.54,5,5,0,0,0-3.72,1.54,5.18,5.18,0,0,0-1.54,3.77,5.12,5.12,0,0,0,1.55,3.74A5,5,0,0,0,316.94,250.13Z"/><path class="cls-1" d="M331.4,251.22V237.88l9.39,10.26v-9.75h1.46v13.34l-9.39-10.14v9.64Z"/><path class="cls-1" d="M356.53,251.72l-5.43-13.34h1.66l3.77,9.82,3.76-9.82h1.65Z"/><path class="cls-1" d="M370.82,251.22V238.39h6.77v1.39h-5.24v3.68h5.24v1.42h-5.24v4.92h5.24v1.42Z"/><path class="cls-1" d="M388.46,251.22V237.88l9.39,10.26v-9.75h1.46v13.34l-9.39-10.14v9.64Z"/><path class="cls-1" d="M412.16,251.22V239.84h-3.63v-1.46h8.79v1.46H413.7v11.38Z"/><path class="cls-1" d="M426.58,251.22V238.39h1.53v12.84Z"/><path class="cls-1" d="M451.88,244.83a6.38,6.38,0,0,1-2,4.76,7,7,0,0,1-9.71,0,6.67,6.67,0,0,1,0-9.55,7,7,0,0,1,9.71,0A6.41,6.41,0,0,1,451.88,244.83Zm-6.86,5.3a5.3,5.3,0,0,0,5.26-5.3,5.14,5.14,0,0,0-1.54-3.77,5.08,5.08,0,0,0-3.72-1.54,5,5,0,0,0-3.72,1.54,5.19,5.19,0,0,0-1.54,3.77,5.13,5.13,0,0,0,1.55,3.74A5.06,5.06,0,0,0,445,250.13Z"/><path class="cls-1" d="M459.48,251.22V237.88l9.39,10.26v-9.75h1.46v13.34l-9.39-10.14v9.64Z"/><path class="cls-1" d="M242.85,33.13c29.88,4.65,36.28,10.78,54.92,11.33a84,84,0,0,0,16.15-.89,79.56,79.56,0,0,1-13.8-.58C287.21,41.34,273,33.75,242.85,33.13Z"/><path class="cls-1" d="M218.79,33.9c29.9,3.75,40.82,11.65,61.41,12.07,10,.2,15.29-.91,15.29-.91s-6.41.7-16.46-1.72C264.4,39.79,244.53,33.14,218.79,33.9Z"/><path class="cls-1" d="M238.69,70c36.77-11.27,47.6-8.1,64.44-16.38a61.38,61.38,0,0,0,12.62-7.94,58.12,58.12,0,0,1-11.58,5.41C291.82,55.37,272.4,54.26,238.69,70Z"/><path class="cls-1" d="M208.81,86.14C250,71.59,268.7,73.73,288.76,63.44c9-4.63,12.83-8.19,12.83-8.19s-5.06,3.69-15.82,6.12C268.74,65.2,240.71,69,208.81,86.14Z"/><path class="cls-1" d="M268,108.39C293.4,78,304.51,75.44,313,60a53.24,53.24,0,0,0,5.34-13,46.68,46.68,0,0,1-6,10.2C305,66.86,287.61,75.42,268,108.39Z"/><path class="cls-1" d="M251.74,140.46c28.07-37.46,45.73-46,55.67-64.87,4.42-8.38,5.35-13.35,5.35-13.35s-1.84,5.68-9,13C291.94,87.23,269.15,106.34,251.74,140.46Z"/><path class="cls-1" d="M316.56,120.14C319,85.51,325.68,78.31,324,61.51a66.15,66.15,0,0,0-2.92-14.34,55.25,55.25,0,0,1,1,12.07C321.7,71,313.38,86.23,316.56,120.14Z"/><path class="cls-1" d="M321.16,147.68c.91-37.18,8.75-51.7,6.62-70.56A59.51,59.51,0,0,0,325,63.57s1.54,5.68.09,14.9C322.7,93.32,316.35,118.18,321.16,147.68Z"/><path class="cls-1" d="M351.77,104.44C340,79.73,341.13,71.39,332.53,58.16a84.87,84.87,0,0,0-9.29-11.94A73.14,73.14,0,0,1,330.08,57C335.33,67.16,336.64,82.74,351.77,104.44Z"/><path class="cls-1" d="M363,118.29C351.45,96,350.66,82.8,342,69.58a63.19,63.19,0,0,0-7.83-10,43.75,43.75,0,0,1,6.65,12.21C345.38,83.93,351,103.32,363,118.29Z"/><path class="cls-1" d="M365.53,79.92c-15-13.21-17.55-20.3-28.74-28.16a86,86,0,0,0-12.44-7.34,80.08,80.08,0,0,1,10.22,7.25C342.59,58.4,349.67,70.34,365.53,79.92Z"/><path class="cls-1" d="M375.09,84.65c-12.4-10.44-17.23-19.74-27.32-26.84a53.48,53.48,0,0,0-9.27-5.45,40.87,40.87,0,0,1,9.42,7.71C355.24,67.79,364.76,79.48,375.09,84.65Z"/><path class="cls-1" d="M365.15,57.22c-13.27-5-17.63-10.13-28.4-12.93a66.54,66.54,0,0,0-12.53-2.06,67.16,67.16,0,0,1,11,2.84C343.57,48.06,352.76,55.49,365.15,57.22Z"/><path class="cls-1" d="M371.67,57.4c-10-3.6-16-9.43-25-11.81a35.52,35.52,0,0,0-8.45-1.39,30.22,30.22,0,0,1,9.47,3.32C355.13,51.32,364.59,57.16,371.67,57.4Z"/><path class="cls-1" d="M357.14,38.79C347,39,341.91,35.9,333.2,37.25A42.67,42.67,0,0,0,323,40.12a45.13,45.13,0,0,1,9.5-1.52C339.68,38.27,348.87,41.69,357.14,38.79Z"/><path class="cls-1" d="M361,36.71c-7.27.27-13.43-2.91-20.38-1.92a20.38,20.38,0,0,0-6.48,1.81s2.83-1,8-.37C348.67,37.06,356.78,38.93,361,36.71Z"/><path class="cls-1" d="M344.71,24.47c-6.84,3.82-11.92,2.5-17.64,7.13a29.46,29.46,0,0,0-6.21,6.91,29.23,29.23,0,0,1,6.38-5.26C332.34,30.2,340.4,30.23,344.71,24.47Z"/><path class="cls-1" d="M346.4,21.08c-4.78,2.76-10.56,1.69-15.08,5.22a13.78,13.78,0,0,0-3.85,4.27s1.57-2.12,5.69-3.36C338.14,25.72,344.52,24.74,346.4,21.08Z"/><path class="cls-1" d="M329,13.87c-3.17,6.6-7.84,7-9.73,14.19a32.72,32.72,0,0,0-1,9.67,28.27,28.27,0,0,1,2-8C322.64,24.56,328.79,21.62,329,13.87Z"/><path class="cls-1" d="M328.52,9.51c-2.19,4.74-7.28,5.61-8.87,11.19a15.94,15.94,0,0,0-.63,6.11A9.75,9.75,0,0,1,321.61,21C324.68,17.57,329,14.23,328.52,9.51Z"/><path class="cls-1" d="M310.27,7.19c1.45,9-2.25,11.24.64,20.07a52.62,52.62,0,0,0,5,10.7,43,43,0,0,1-3.06-9.26C311.55,22,314.86,16.39,310.27,7.19Z"/><path class="cls-1" d="M307,2c1.18,6.62-2.72,9.56-.44,16.79a28.19,28.19,0,0,0,3.35,7.2,14.77,14.77,0,0,1-1.45-7.58C308.89,13.2,310.5,7.61,307,2Z"/><path class="cls-1" d="M288.36,5.72c8,10.76,6.23,15,14.9,24a80.54,80.54,0,0,0,10.8,9.43,68,68,0,0,1-8.22-8.62C300.33,23.55,299.43,15.52,288.36,5.72Z"/><path class="cls-1" d="M280.92,0c6.5,8.38,4.94,13.7,12.57,21.73a50.65,50.65,0,0,0,8,7A27.66,27.66,0,0,1,295,20.5C291.58,13.94,288.91,6.19,280.92,0Z"/><path class="cls-1" d="M264.2,12.61c17.73,10.56,19.27,16.47,34,23.13a96.11,96.11,0,0,0,15.13,5.47A85.93,85.93,0,0,1,301,35.55C291.13,30,284.17,20.69,264.2,12.61Z"/><path class="cls-1" d="M249.94,7.75c15.66,8.87,18.75,16.52,33.24,23a72,72,0,0,0,12.75,4.57,44.49,44.49,0,0,1-12.24-6.69C274.94,22.06,265.23,13,249.94,7.75Z"/><path class="cls-1" d="M0,212.44V180H7.61Q13,180,15,181.66q3,2.36,3,7.21,0,8.12-8.74,8.12H8.65L21,212.44H16.13L4.32,197H3.76v15.45Zm3.76-29.14v10.84H6.71a13.15,13.15,0,0,0,5.33-.75q2.24-1.13,2.24-4.47,0-3.5-2.12-4.71-1.57-.91-5.44-.91Z"/><path class="cls-1" d="M41.27,212.44V180h3.85v32.4Z"/><path class="cls-1" d="M77.68,213.7,64,180h4.18l9.51,24.78L87.16,180h4.15Z"/><path class="cls-1" d="M110.18,212.44V180h17.08v3.52H114v9.3h13.23v3.59H114v12.41h13.23v3.59Z"/><path class="cls-1" d="M152.62,212.44V180h7.61q5.36,0,7.44,1.62,3,2.36,3,7.21,0,8.12-8.74,8.12h-.69l12.37,15.45h-4.89L156.94,197h-.55v15.45Zm3.76-29.14v10.84h2.94a13.15,13.15,0,0,0,5.33-.75q2.24-1.13,2.24-4.47,0-3.5-2.12-4.71-1.57-.91-5.44-.91Z"/><path class="cls-1" d="M207.2,194.44q6.37,2.81,6.37,8.87a9.5,9.5,0,0,1-2.92,7.3,10.52,10.52,0,0,1-7.46,2.63,10.32,10.32,0,0,1-6.37-1.93,9.54,9.54,0,0,1-3.54-5.6l3.5-1.72q1.44,6,6.42,6a6.67,6.67,0,0,0,4.6-1.59,5.6,5.6,0,0,0,1.88-4.42q0-4.33-5-6.48l-3.94-1.68q-6.39-2.72-6.39-8.57a7.2,7.2,0,0,1,2.79-5.91,9.79,9.79,0,0,1,6.33-2.06q6,0,8.39,4.89l-3.19,2q-2.15-3.72-5.49-3.72a5,5,0,0,0-3.53,1.3,4.43,4.43,0,0,0-1.4,3.41q0,3.3,4.36,5.22Z"/><path class="cls-1" d="M237.29,212.44V180h3.85v32.4Z"/><path class="cls-1" d="M264.38,212.44V180h6.22a64,64,0,0,1,7.63.31,14.7,14.7,0,0,1,7,2.72q5.66,4.36,5.66,13.19t-5.66,13.14a14.11,14.11,0,0,1-6.33,2.63,44.17,44.17,0,0,1-6.95.4Zm3.89-3.63h2.46q4.63,0,6.28-.2a10.92,10.92,0,0,0,5.82-2.1q4.07-3.39,4.07-10.29T282.83,186a11,11,0,0,0-5.8-2.14,59.83,59.83,0,0,0-6.31-.22h-2.46Z"/><path class="cls-1" d="M312.67,212.44V180h17.08v3.52H316.52v9.3h13.23v3.59H316.52v12.41h13.23v3.59Z"/><path class="cls-1" d="M360.52,197.9v14.54h-3.76V180h6.79q5.89,0,8.17,1.62Q375,184,375,189t-3.3,7.3q-2.3,1.64-8.17,1.63Zm0-3.5h1.95a16.55,16.55,0,0,0,5.73-.69q2.66-1.11,2.66-4.54,0-3.59-2.54-4.8a14.82,14.82,0,0,0-5.84-.82h-1.95Z"/><path class="cls-1" d="M402.86,178.75l14.74,33.68h-4.18l-4.2-9.94H396.54l-4.19,9.94h-4.17Zm0,8.51-5.16,11.94H408Z"/><path class="cls-1" d="M439.47,212.44V180h3.85v28.73h12.23v3.67Z"/><path class="cls-1" d="M488.92,178.75l14.74,33.68h-4.18l-4.2-9.94H482.6l-4.19,9.94h-4.18Zm0,8.51-5.16,11.94h10.31Z"/><path class="cls-1" d="M545.85,187.78a14.17,14.17,0,0,0-10.78-4.93,12.38,12.38,0,0,0-9.25,3.94,13.22,13.22,0,0,0-3.72,9.56,13,13,0,0,0,2.21,7.66,12.67,12.67,0,0,0,10.93,5.75,13.52,13.52,0,0,0,10.6-5.11v5.11a18.19,18.19,0,0,1-10.93,3.54,16.42,16.42,0,0,1-9.56-3,16,16,0,0,1-7.28-13.92,16.78,16.78,0,0,1,17.13-17.13,18.25,18.25,0,0,1,10.64,3.5Z"/><path class="cls-1" d="M566.82,212.44V180H583.9v3.52H570.67v9.3H583.9v3.59H570.67v12.41H583.9v3.59Z"/></g></g></svg>